<svg width="30" height="52" viewBox="0 0 30 52" fill="none" xmlns="http://www.w3.org/2000/svg">
<path d="M22.0747 14.5C21.7872 14.125 21.4372 13.8 21.1122 13.475C20.2747 12.725 19.3247 12.1875 18.5247 11.4C16.6622 9.575 16.2497 6.5625 17.4372 4.25C16.2497 4.5375 15.2122 5.1875 14.3247 5.9C11.0872 8.5 9.8122 13.0875 11.3372 17.025C11.3872 17.15 11.4372 17.275 11.4372 17.4375C11.4372 17.7125 11.2497 17.9625 10.9997 18.0625C10.7122 18.1875 10.4122 18.1125 10.1747 17.9125C10.1033 17.8535 10.0439 17.7814 9.9997 17.7C8.5872 15.9125 8.3622 13.35 9.3122 11.3C7.2247 13 6.0872 15.875 6.2497 18.5875C6.3247 19.2125 6.3997 19.8375 6.6122 20.4625C6.7872 21.2125 7.1247 21.9625 7.4997 22.625C8.8497 24.7875 11.1872 26.3375 13.6997 26.65C16.3747 26.9875 19.2372 26.5 21.2872 24.65C23.5747 22.575 24.3747 19.25 23.1997 16.4L23.0372 16.075C22.7747 15.5 22.0747 14.5 22.0747 14.5ZM18.1247 22.375C17.7747 22.675 17.1997 23 16.7497 23.125C15.3497 23.625 13.9497 22.925 13.1247 22.1C14.6122 21.75 15.4997 20.65 15.7622 19.5375C15.9747 18.5375 15.5747 17.7125 15.4122 16.75C15.2622 15.825 15.2872 15.0375 15.6247 14.175C15.8622 14.65 16.1122 15.125 16.4122 15.5C17.3747 16.75 18.8872 17.3 19.2122 19C19.2622 19.175 19.2872 19.35 19.2872 19.5375C19.3247 20.5625 18.8747 21.6875 18.1247 22.375Z" fill="#BC1E2D"/>
<path d="M4.382 47.5V36.16H6.888V40.752H8.638V36.16H11.158V47.5H8.638V42.544H6.888V47.5H4.382ZM16.1329 47.668C15.2836 47.668 14.6116 47.5187 14.1169 47.22C13.6223 46.9213 13.2676 46.492 13.0529 45.932C12.8383 45.372 12.7309 44.7047 12.7309 43.93V39.716C12.7309 38.932 12.8383 38.2647 13.0529 37.714C13.2676 37.1633 13.6223 36.7433 14.1169 36.454C14.6116 36.1553 15.2836 36.006 16.1329 36.006C16.9916 36.006 17.6683 36.1553 18.1629 36.454C18.6669 36.7433 19.0263 37.1633 19.2409 37.714C19.4556 38.2647 19.5629 38.932 19.5629 39.716V43.93C19.5629 44.7047 19.4556 45.372 19.2409 45.932C19.0263 46.492 18.6669 46.9213 18.1629 47.22C17.6683 47.5187 16.9916 47.668 16.1329 47.668ZM16.1329 45.89C16.3943 45.89 16.5856 45.8247 16.7069 45.694C16.8283 45.5633 16.9076 45.3953 16.9449 45.19C16.9823 44.9847 17.0009 44.7747 17.0009 44.56V39.1C17.0009 38.876 16.9823 38.666 16.9449 38.47C16.9076 38.2647 16.8283 38.0967 16.7069 37.966C16.5856 37.8353 16.3943 37.77 16.1329 37.77C15.8903 37.77 15.7083 37.8353 15.5869 37.966C15.4656 38.0967 15.3863 38.2647 15.3489 38.47C15.3116 38.666 15.2929 38.876 15.2929 39.1V44.56C15.2929 44.7747 15.3069 44.9847 15.3349 45.19C15.3723 45.3953 15.4469 45.5633 15.5589 45.694C15.6803 45.8247 15.8716 45.89 16.1329 45.89ZM22.0007 47.5V38.022H20.2927V36.16H26.2147V38.022H24.5207V47.5H22.0007Z" fill="#BC1E2D"/>
</svg>
